<svg xmlns="http://www.w3.org/2000/svg" viewBox="0 0 512 512">
  <defs>
    <linearGradient id="bg" x1="0%" y1="0%" x2="100%" y2="100%">
      <stop offset="0%" style="stop-color:#667eea"/>
      <stop offset="100%" style="stop-color:#764ba2"/>
    </linearGradient>
  </defs>
  
  <!-- 背景圓形 -->
  <circle cx="256" cy="256" r="240" fill="url(#bg)"/>
  
  <!-- 內圈 -->
  <circle cx="256" cy="256" r="200" fill="none" stroke="rgba(255,255,255,0.2)" stroke-width="8"/>
  
  <!-- GitHub 圖示風格的貓頭 -->
  <g fill="white" transform="translate(136, 140) scale(0.95)">
    <!-- 貓頭輪廓 -->
    <path d="M128,0 C57.3,0 0,57.3 0,128 C0,184.6 36.7,232.5 87.5,249.4 
             C93.8,250.6 96,246.5 96,243 C96,239.8 95.9,230.3 95.8,219.6 
             C60.3,227.3 52.8,202.6 52.8,202.6 
             C47,188 38.6,184 38.6,184 
             C27,176.3 39.4,176.5 39.4,176.5 
             C52.1,177.4 58.9,189.6 58.9,189.6 
             C70.3,209.3 88.7,203.7 96.3,200.4 
             C97.5,192.2 100.6,186.5 104,183.3 
             C75.7,180.1 46,169.2 46,120.4 
             C46,106.5 51,95 58.9,86.1 
             C57.6,82.9 53.2,70 60.2,52.5 
             C60.2,52.5 70.7,49.1 95.8,65.5 
             C106,62.8 116.7,61.5 128,61.5 
             C139.3,61.5 150,62.8 160.2,65.5 
             C185.3,49.1 195.8,52.5 195.8,52.5 
             C202.8,70 198.4,82.9 197.1,86.1 
             C205,95 210,106.5 210,120.4 
             C210,169.3 180.3,180.1 152,183.4 
             C156.3,187.4 160.2,195.2 160.2,206.9 
             C160.2,224 160,237.6 160,242 
             C160,246.5 162.1,250.7 168.5,249.4 
             C219.3,232.5 256,184.6 256,128 
             C256,57.3 198.7,0 128,0 Z"/>
  </g>
  
  <!-- 齒輪裝飾（自動化象徵） -->
  <g fill="rgba(255,255,255,0.3)" transform="translate(360, 360)">
    <circle cx="0" cy="0" r="30"/>
    <circle cx="0" cy="0" r="20" fill="url(#bg)"/>
    <path d="M0,-35 L8,-25 L-8,-25 Z" transform="rotate(0)"/>
    <path d="M0,-35 L8,-25 L-8,-25 Z" transform="rotate(45)"/>
    <path d="M0,-35 L8,-25 L-8,-25 Z" transform="rotate(90)"/>
    <path d="M0,-35 L8,-25 L-8,-25 Z" transform="rotate(135)"/>
    <path d="M0,-35 L8,-25 L-8,-25 Z" transform="rotate(180)"/>
    <path d="M0,-35 L8,-25 L-8,-25 Z" transform="rotate(225)"/>
    <path d="M0,-35 L8,-25 L-8,-25 Z" transform="rotate(270)"/>
    <path d="M0,-35 L8,-25 L-8,-25 Z" transform="rotate(315)"/>
  </g>
  
  <!-- AI 文字標籤 -->
  <text x="256" y="420" text-anchor="middle" 
        font-family="Arial, sans-serif" 
        font-size="36" 
        font-weight="bold" 
        fill="white">AI</text>
</svg>